<?xml version="1.0" encoding="utf-8"?>
<!-- Generator: Adobe Illustrator 25.2.0, SVG Export Plug-In . SVG Version: 6.00 Build 0)  -->
<svg version="1.1" id="Layer_1" xmlns="http://www.w3.org/2000/svg" xmlns:xlink="http://www.w3.org/1999/xlink" x="0px" y="0px"
	 viewBox="0 0 432 396" style="enable-background:new 0 0 432 396;" xml:space="preserve">
<style type="text/css">
	.st0{fill:#FFFFFF;}
	.st1{fill:#3D527C;}
	.st2{fill:#7492CB;}
	.st3{fill:#123D59;}
	.st4{fill:#F47920;}
	.st5{fill:#DD1F26;}
	.st6{fill:#FED420;}
	.st7{fill:#FFD61B;}
	.st8{fill:none;stroke:#D6D6D6;stroke-width:0.6648;stroke-miterlimit:10;}
</style>
<g>
	<path class="st0" d="M42.56,184.45c-1.28-1.53-1.81-3.35-1.59-5.47c0.3-2.84,1.48-4.81,3.54-5.92c1.15-0.61,2.28-0.88,3.36-0.82
		l-0.38,3.56c-0.86,0.14-1.52,0.36-1.98,0.67c-0.82,0.55-1.3,1.45-1.43,2.7c-0.14,1.27,0.29,2.33,1.28,3.18
		c0.99,0.85,2.45,1.38,4.4,1.59c1.95,0.21,3.45-0.02,4.5-0.69c1.05-0.67,1.64-1.6,1.77-2.79c0.13-1.22-0.19-2.2-0.95-2.93
		c-0.41-0.4-1.05-0.77-1.92-1.1l0.38-3.54c1.86,0.51,3.32,1.46,4.37,2.84c1.05,1.38,1.47,3.06,1.27,5.02
		c-0.26,2.43-1.26,4.25-3.01,5.47c-1.76,1.22-4.04,1.67-6.84,1.37C46.29,187.25,44.04,186.21,42.56,184.45z"/>
	<path class="st0" d="M42.97,166.86l0.76-3.5l14,3.04l1.81-8.37l3.07,0.67l-2.56,11.87L42.97,166.86z"/>
	<path class="st0" d="M65.98,143.21c0.88,1.66,0.92,3.65,0.14,5.98c-0.78,2.32-2.02,3.88-3.72,4.68c-2.13,1.12-4.69,1.17-7.66,0.17
		c-3.03-1.02-5.03-2.61-6-4.77c-0.88-1.66-0.92-3.65-0.14-5.98c0.78-2.32,2.02-3.88,3.72-4.68c2.07-1.13,4.62-1.18,7.66-0.16
		C62.95,139.45,64.95,141.04,65.98,143.21z M62.75,144.48c-0.75-1.13-2.05-2.01-3.92-2.64c-1.86-0.63-3.43-0.71-4.71-0.27
		c-1.28,0.45-2.15,1.34-2.6,2.69c-0.45,1.35-0.31,2.59,0.43,3.73c0.74,1.14,2.05,2.03,3.91,2.65c1.86,0.63,3.44,0.71,4.72,0.25
		c1.28-0.46,2.15-1.36,2.6-2.71C63.64,146.85,63.49,145.61,62.75,144.48z"/>
	<path class="st0" d="M53.65,131.13l1.56-3.29l9.69,4.61c1.08,0.52,1.94,0.77,2.55,0.75c1.07,0.03,1.92-0.61,2.54-1.92
		c0.62-1.31,0.58-2.36-0.12-3.18c-0.38-0.49-1.11-0.99-2.19-1.51l-9.69-4.61l1.56-3.29l9.7,4.61c1.68,0.8,2.86,1.67,3.55,2.63
		c1.26,1.77,1.25,3.99-0.02,6.67c-1.27,2.68-2.99,4.09-5.16,4.23c-1.18,0.07-2.6-0.3-4.28-1.1L53.65,131.13z"/>
	<path class="st0" d="M67.88,105.49c0.98-0.81,2.12-1.24,3.43-1.31c1.05-0.05,2.07,0.11,3.04,0.46c0.97,0.35,1.85,0.77,2.63,1.26
		c1.97,1.23,3.4,2.66,4.28,4.29c1.19,2.21,1.09,4.41-0.28,6.61l-3.91,6.27l-14.82-9.25l3.91-6.27
		C66.73,106.65,67.3,105.97,67.88,105.49z M66.65,112.47l9.68,6.04l1.75-2.81c0.9-1.44,0.8-2.89-0.29-4.35
		c-0.6-0.8-1.44-1.55-2.54-2.23c-1.51-0.94-2.81-1.43-3.91-1.47c-1.1-0.04-2.08,0.63-2.94,2.02L66.65,112.47z"/>
	<path class="st0" d="M79.68,91.68c-0.18-1.99,0.42-3.78,1.82-5.4c1.87-2.16,3.96-3.1,6.28-2.84c1.3,0.16,2.37,0.57,3.23,1.25
		l-2.35,2.71c-0.78-0.38-1.45-0.57-2.01-0.58c-0.99-0.01-1.9,0.45-2.72,1.4c-0.83,0.96-1.09,2.08-0.76,3.34
		c0.33,1.26,1.23,2.53,2.71,3.81c1.48,1.28,2.85,1.95,4.09,2c1.25,0.05,2.26-0.38,3.05-1.28c0.8-0.93,1.1-1.91,0.89-2.95
		c-0.11-0.56-0.42-1.23-0.95-2l2.33-2.69c1.24,1.48,1.9,3.09,1.97,4.82c0.08,1.74-0.53,3.35-1.82,4.84
		c-1.6,1.84-3.46,2.77-5.59,2.77c-2.14,0-4.27-0.93-6.41-2.78C81.14,96.1,79.89,93.96,79.68,91.68z"/>
	<path class="st0" d="M110.6,80.12c-0.04,1.88-0.96,3.64-2.77,5.3c-1.81,1.65-3.65,2.42-5.52,2.29c-2.41-0.06-4.67-1.24-6.79-3.56
		c-2.16-2.36-3.14-4.72-2.95-7.08c0.04-1.88,0.96-3.64,2.77-5.3c1.81-1.65,3.65-2.42,5.52-2.29c2.36,0.02,4.62,1.2,6.78,3.56
		C109.77,75.37,110.75,77.72,110.6,80.12z M107.16,79.67c-0.11-1.35-0.82-2.75-2.15-4.2c-1.32-1.45-2.66-2.28-3.99-2.51
		c-1.34-0.23-2.53,0.14-3.58,1.1c-1.05,0.96-1.52,2.12-1.42,3.47c0.1,1.36,0.81,2.76,2.14,4.21c1.33,1.45,2.67,2.29,4.01,2.5
		c1.34,0.22,2.54-0.16,3.59-1.11C106.79,82.18,107.26,81.02,107.16,79.67z"/>
	<path class="st0" d="M114.95,56.9l4.2-2.98l10.12,14.24l-2.72,1.93l-6.85-9.63c-0.2-0.28-0.47-0.67-0.82-1.17
		c-0.35-0.5-0.62-0.89-0.81-1.16l5.85,13.84l-2.84,2.02l-11.13-10.09c0.19,0.27,0.47,0.65,0.83,1.15c0.36,0.5,0.64,0.88,0.84,1.16
		l6.85,9.64l-2.72,1.93l-10.12-14.24l4.25-3.02l10.5,9.39L114.95,56.9z"/>
	<path class="st0" d="M138.72,54.27c-0.47,1.23-1.52,2.29-3.15,3.19l-3.13,1.72l3.03,5.51l-3.12,1.71l-8.42-15.31l6.45-3.54
		c1.49-0.82,2.89-1.07,4.21-0.77c1.32,0.3,2.43,1.28,3.34,2.94C138.92,51.52,139.19,53.04,138.72,54.27z M133.29,50.07
		c-0.58-0.12-1.23,0.02-1.95,0.41l-2.83,1.55l2.48,4.51l2.83-1.55c0.72-0.39,1.17-0.88,1.37-1.47c0.2-0.58,0.08-1.28-0.36-2.07
		C134.38,50.65,133.87,50.19,133.29,50.07z"/>
	<path class="st0" d="M139.63,42.77l3.36-1.4l4.14,9.9c0.46,1.11,0.93,1.86,1.4,2.26c0.78,0.74,1.84,0.83,3.18,0.27
		c1.33-0.56,2.01-1.37,2.03-2.44c0.04-0.62-0.17-1.48-0.63-2.59l-4.14-9.9l3.36-1.4l4.14,9.91c0.72,1.71,1.01,3.16,0.89,4.33
		c-0.24,2.15-1.73,3.8-4.47,4.94c-2.74,1.14-4.96,1.04-6.67-0.3c-0.92-0.74-1.74-1.96-2.46-3.68L139.63,42.77z"/>
	<path class="st0" d="M169.33,32.14l0.9,2.96l-4.91,1.48l4.17,13.76l-3.45,1.04l-4.17-13.76l-4.94,1.49l-0.9-2.96L169.33,32.14z"/>
	<path class="st0" d="M179.73,47.75l-3.47,0.79l-3.92-17.03l3.47-0.79L179.73,47.75z"/>
	<path class="st0" d="M180.38,29.67l3.72-0.56l8.56,11.03l-1.82-12.04l3.3-0.49l2.61,17.27l-3.54,0.53l-8.76-11.22l1.85,12.25
		l-3.3,0.5L180.38,29.67z"/>
	<path class="st0" d="M211.03,32.07c-0.33-1.18-1.04-1.98-2.11-2.4c-0.6-0.23-1.26-0.33-1.98-0.29c-1.38,0.07-2.49,0.65-3.32,1.75
		c-0.83,1.1-1.2,2.72-1.09,4.84c0.11,2.14,0.66,3.63,1.67,4.48c1.01,0.84,2.12,1.23,3.34,1.17c1.2-0.06,2.17-0.46,2.9-1.2
		c0.73-0.74,1.16-1.68,1.28-2.83l-3.96,0.19l-0.15-2.91l7.14-0.35l0.47,9.36l-2.37,0.12l-0.47-2.16c-0.65,0.86-1.24,1.47-1.77,1.83
		c-0.92,0.63-2.06,0.99-3.44,1.05c-2.27,0.11-4.17-0.6-5.7-2.13c-1.59-1.54-2.46-3.7-2.6-6.49c-0.14-2.82,0.51-5.12,1.95-6.9
		c1.44-1.78,3.42-2.73,5.93-2.85c2.18-0.11,3.96,0.37,5.33,1.43c1.38,1.06,2.21,2.43,2.48,4.1L211.03,32.07z"/>
	<path class="st0" d="M237.81,38.29c-1.09,0.73-2.57,0.99-4.42,0.78l-3.55-0.41l-0.71,6.24l-3.54-0.4l1.96-17.35l7.32,0.84
		c1.69,0.19,2.98,0.79,3.88,1.8c0.9,1.01,1.25,2.45,1.04,4.33C239.57,36.16,238.9,37.55,237.81,38.29z M235.8,31.72
		c-0.41-0.44-1.02-0.7-1.83-0.79l-3.21-0.37l-0.58,5.11l3.21,0.37c0.81,0.09,1.47-0.04,1.97-0.41s0.8-1,0.9-1.9
		C236.36,32.83,236.21,32.16,235.8,31.72z"/>
	<path class="st0" d="M255.84,32.26c0.56,0.41,0.99,0.92,1.3,1.54c0.26,0.51,0.43,1.05,0.52,1.62c0.09,0.57,0.06,1.19-0.09,1.86
		c-0.18,0.81-0.56,1.56-1.13,2.25c-0.58,0.69-1.36,1.1-2.36,1.22c0.7,0.49,1.15,1.06,1.34,1.71c0.19,0.65,0.16,1.58-0.11,2.77
		l-0.25,1.14c-0.17,0.78-0.26,1.31-0.26,1.6c0,0.46,0.14,0.83,0.43,1.12l-0.09,0.43l-3.86-0.86c-0.02-0.4-0.03-0.72-0.02-0.96
		c0.02-0.5,0.08-1,0.18-1.5l0.33-1.59c0.23-1.09,0.2-1.86-0.07-2.3c-0.27-0.44-0.9-0.77-1.87-0.99l-3.42-0.76l-1.49,6.68l-3.42-0.76
		l3.79-17.04l8.01,1.79C254.44,31.51,255.29,31.85,255.84,32.26z M248.05,33.17l-1.02,4.58l3.77,0.84c0.75,0.17,1.33,0.2,1.74,0.1
		c0.73-0.18,1.21-0.74,1.42-1.7c0.23-1.03,0.06-1.8-0.5-2.3c-0.32-0.28-0.83-0.5-1.55-0.66L248.05,33.17z"/>
	<path class="st0" d="M271.31,53.3c-1.67,0.86-3.66,0.88-5.98,0.08c-2.32-0.81-3.87-2.06-4.64-3.77c-1.1-2.15-1.13-4.7-0.1-7.66
		c1.05-3.02,2.66-5,4.82-5.95c1.67-0.86,3.66-0.88,5.98-0.08c2.32,0.81,3.86,2.06,4.64,3.77c1.11,2.08,1.14,4.64,0.09,7.66
		C275.09,50.32,273.49,52.3,271.31,53.3z M270.06,50.06c1.14-0.73,2.03-2.03,2.67-3.89c0.64-1.85,0.74-3.42,0.31-4.7
		c-0.44-1.28-1.33-2.16-2.67-2.63c-1.34-0.47-2.59-0.34-3.73,0.39s-2.04,2.02-2.69,3.88c-0.64,1.86-0.74,3.43-0.29,4.71
		c0.45,1.29,1.35,2.16,2.69,2.63C267.68,50.93,268.92,50.79,270.06,50.06z"/>
	<path class="st0" d="M291.49,51.03c0.28-1.19,0.05-2.23-0.69-3.12c-0.42-0.49-0.95-0.9-1.6-1.21c-1.24-0.61-2.49-0.63-3.76-0.06
		c-1.26,0.56-2.36,1.8-3.29,3.71c-0.94,1.93-1.17,3.5-0.7,4.73c0.47,1.22,1.26,2.1,2.37,2.64c1.08,0.53,2.12,0.65,3.12,0.35
		c1-0.29,1.83-0.91,2.49-1.86l-3.57-1.74l1.28-2.62l6.42,3.14l-4.1,8.42l-2.13-1.04l0.63-2.12c-0.98,0.44-1.8,0.69-2.44,0.75
		c-1.11,0.11-2.28-0.13-3.53-0.74c-2.04-1-3.37-2.54-3.97-4.61c-0.66-2.11-0.37-4.42,0.85-6.93c1.24-2.54,2.92-4.24,5.04-5.1
		c2.12-0.86,4.31-0.74,6.57,0.36c1.96,0.96,3.29,2.23,3.99,3.82c0.7,1.59,0.76,3.19,0.2,4.78L291.49,51.03z"/>
	<path class="st0" d="M310.97,56.79c0.38,0.57,0.62,1.2,0.7,1.89c0.07,0.57,0.05,1.14-0.06,1.7c-0.11,0.57-0.35,1.14-0.72,1.72
		c-0.45,0.7-1.06,1.27-1.84,1.73c-0.78,0.45-1.66,0.56-2.63,0.33c0.49,0.7,0.72,1.39,0.67,2.07c-0.04,0.68-0.39,1.54-1.05,2.57
		l-0.63,0.99c-0.43,0.67-0.69,1.15-0.79,1.42c-0.16,0.43-0.16,0.83,0.02,1.19l-0.24,0.37l-3.33-2.13c0.12-0.38,0.22-0.69,0.31-0.91
		c0.19-0.46,0.41-0.91,0.68-1.35L302.9,67c0.59-0.95,0.83-1.67,0.72-2.18c-0.11-0.51-0.58-1.03-1.42-1.57l-2.95-1.89l-3.69,5.77
		l-2.95-1.89l9.4-14.71l6.92,4.42C309.9,55.61,310.58,56.22,310.97,56.79z M303.33,54.97l-2.53,3.95l3.25,2.08
		c0.65,0.41,1.18,0.64,1.61,0.69c0.75,0.09,1.39-0.28,1.92-1.11c0.57-0.89,0.68-1.67,0.32-2.33c-0.2-0.37-0.61-0.76-1.23-1.15
		L303.33,54.97z"/>
	<path class="st0" d="M321.82,64.23l3.16,2.55l-6.25,17.39l-3.02-2.45l1.38-3.5l-4.91-3.98L309,76.31l-2.92-2.36L321.82,64.23z
		 M314.81,72.52l3.42,2.77l2.63-6.71L314.81,72.52z"/>
	<path class="st0" d="M340.89,81.75l3.59,3.7l-12.53,12.16l-2.33-2.4l8.47-8.22c0.24-0.24,0.59-0.57,1.03-0.99
		c0.44-0.42,0.79-0.75,1.02-0.98l-12.78,7.87l-2.43-2.5l8.26-12.52c-0.24,0.23-0.57,0.56-1.01,1c-0.43,0.43-0.77,0.76-1.02,1
		l-8.47,8.22l-2.33-2.4l12.53-12.16l3.64,3.74l-7.67,11.8L340.89,81.75z"/>
	<path class="st0" d="M347.09,115.53c-1.85-0.3-3.48-1.46-4.86-3.49c-1.39-2.02-1.89-3.95-1.5-5.79c0.39-2.38,1.88-4.45,4.46-6.22
		c2.64-1.81,5.11-2.45,7.42-1.92c1.85,0.3,3.47,1.46,4.86,3.48c1.39,2.02,1.89,3.95,1.5,5.79c-0.34,2.33-1.83,4.4-4.47,6.21
		C351.91,115.37,349.44,116.02,347.09,115.53z M348.01,112.18c1.35,0.08,2.84-0.43,4.46-1.54c1.62-1.11,2.63-2.31,3.04-3.6
		c0.41-1.29,0.21-2.52-0.59-3.7c-0.8-1.17-1.89-1.8-3.24-1.9c-1.36-0.1-2.85,0.41-4.47,1.52c-1.62,1.11-2.63,2.32-3.03,3.62
		c-0.4,1.3-0.2,2.54,0.61,3.71C345.58,111.47,346.66,112.1,348.01,112.18z"/>
	<path class="st0" d="M364,112.85l5.78,10.79l-2.71,1.45l-4.1-7.65l-3.54,1.89l3.59,6.7l-2.67,1.43l-3.59-6.7l-6.45,3.45l-1.68-3.14
		L364,112.85z"/>
	<path class="st0" d="M371.5,127.39l4.71,11.29l-2.83,1.18l-3.34-8.01l-3.71,1.54l2.93,7.02l-2.8,1.17l-2.93-7.02l-6.76,2.81
		l-1.37-3.29L371.5,127.39z"/>
	<path class="st0" d="M361.83,150.81l-1.13-3.38l16.56-5.54l1.13,3.38L361.83,150.81z"/>
	<path class="st0" d="M378.55,151.86c1.73,1,2.85,2.53,3.37,4.6c0.69,2.77,0.26,5.03-1.29,6.77c-0.87,0.97-1.83,1.61-2.88,1.92
		l-0.87-3.48c0.76-0.42,1.3-0.86,1.63-1.31c0.58-0.8,0.72-1.81,0.42-3.03c-0.31-1.24-1.07-2.09-2.29-2.55
		c-1.22-0.46-2.78-0.45-4.68,0.02s-3.23,1.2-3.99,2.19s-0.99,2.07-0.7,3.23c0.3,1.19,0.93,2,1.9,2.43c0.52,0.24,1.25,0.36,2.18,0.38
		l0.86,3.46c-1.92,0.16-3.61-0.23-5.08-1.17c-1.46-0.94-2.43-2.37-2.91-4.28c-0.59-2.37-0.27-4.43,0.96-6.17
		c1.23-1.75,3.22-2.96,5.96-3.64C374.09,150.51,376.57,150.72,378.55,151.86z"/>
	<path class="st0" d="M382.86,181.61l-1.2-9l-3.68,0.49l1.1,8.26l-3.01,0.4l-1.1-8.26l-4.45,0.59l1.26,9.41l-3.11,0.41l-1.72-12.89
		l17.31-2.3l1.67,12.47L382.86,181.61z"/>
</g>
<g>
	<ellipse class="st1" cx="212.61" cy="198" rx="179.8" ry="176.6"/>
	<ellipse class="st2" cx="212.61" cy="198" rx="137.41" ry="134.96"/>
	<path class="st3" d="M288.55,191.66c-13.79,9.82-29.65,16.99-46.82,20.79c-5.64,1.25-11.42,1.81-17.21,1.8l-27.71,0.19
		c-20.97-2.95-41.86-11.11-58.26-22.78c-8.71,2.68-56.74,16.54-99.66,10.91c0,0,36.59,29.73,101.05,25.23l11.51,5.79
		c15.27,7.69,31.96,12.3,49.07,13.57h0c11.09,5.02,21.84,5.35,32.16-0.14h0c17.1-1.26,33.64-6.55,48.22-15.42l6.25-3.8
		c64.46,4.49,101.05-25.23,101.05-25.23C345.29,208.2,297.26,194.33,288.55,191.66z"/>
	<path class="st0" d="M215.42,231.21C215.42,231.21,215.42,231.21,215.42,231.21c0.04-0.01,1.28-0.37,3.3-0.87
		c7.1-1.73,23.53-7.56,32.11-2.82c0.01,0.01,0.02,0,0.02-0.01c-0.02-0.4-0.24-5.07-1.33-7.15c-0.16-0.31-0.42-0.55-0.73-0.72
		c-0.98-0.54-3.42-1.87-4.49-2.3c0,0-0.01,0-0.01,0c-0.05-0.13-2.12-5.75-13.22-6.56c0,0,0,0,0,0l0,0
		c-6.07,0.03-12.13,0.46-18.14,1.3l-16.36,2.3c-0.01,0-0.02,0.01-0.02,0.02C196.74,214.96,204.09,228.16,215.42,231.21z"/>
	<path class="st0" d="M267.55,283.98c-0.02,0-0.05,0-0.07,0c-0.72-7.53-7.17-13.42-15.02-13.42c-1.23,0-2.43,0.15-3.57,0.42
		c-3.07-12.51-16.31-21.91-32.19-21.91c-14.64,0-27.04,8-31.29,19.05c-0.95-0.19-1.93-0.3-2.94-0.3c-6.38,0-11.79,3.99-13.84,9.56
		c-6.9,1.05-12.2,6.9-12.2,13.97c0,7.82,6.45,14.16,14.41,14.16c0.15,0,0.3-0.02,0.45-0.02c0.15,0.01,0.29,0.02,0.44,0.02h94.23
		c0.26,0,0.51-0.02,0.76-0.04c0.28,0.02,0.55,0.04,0.83,0.04c6.06,0,10.96-4.82,10.96-10.77
		C278.52,288.8,273.61,283.98,267.55,283.98z"/>
	<g>
		<path class="st4" d="M258.92,255.72l-41.45-16.05v85.56C260.47,295.54,258.92,255.72,258.92,255.72z"/>
		<path class="st5" d="M176.02,255.72c0,0-1.55,39.83,41.45,69.51v-85.56L176.02,255.72z"/>
	</g>
	<g id="g26294_2_" transform="matrix(0.212715,0,0,-0.2127144,-28.819977,400.78003)">
		<g id="g26296_2_" transform="translate(560.8644,-796.2722)">
			<path id="path26298_2_" class="st6" d="M356.49,1161.52l242.26,181.09l-93.2-3.1l331.92,197.21l-234.34-164.35l106.63,4.94
				L356.49,1161.52z"/>
		</g>
	</g>
	<g>
		<g id="g4394_2_" transform="translate(389.8295,522.1973)">
			<path id="path4396_2_" class="st7" d="M-168.23-320.05l-1.53-5.03l4.24-3.08l-5.19-0.04l-1.53-5.03l-1.67,5.01l-5.18-0.04
				l4.15,3.13l-1.68,5.01l4.24-3.08L-168.23-320.05z"/>
		</g>
		<g id="g4422_4_" transform="translate(400.7555,520.8513)">
			<path id="path4424_4_" class="st7" d="M-206.71-336.37l-1.83,4.93l-5.27-0.01l4.14,3.07l-1.83,4.93l4.39-3.04l4.14,3.07
				l-1.43-4.95l4.39-3.04l-5.27-0.01L-206.71-336.37z"/>
		</g>
		<g id="g4426_4_" transform="translate(408.8766,517.2437)">
			<path id="path4428_4_" class="st7" d="M-237.14-343.54l-1.71,4.98l-5.27,0.12l4.21,2.96l-1.71,4.98l4.31-3.15l4.21,2.96
				l-1.55-4.91l4.31-3.15l-5.27,0.12L-237.14-343.54z"/>
		</g>
		<g id="g4422_3_" transform="translate(400.7555,520.8513)">
			<path id="path4424_3_" class="st7" d="M-155.36-323.26l-1.56-5.02l4.21-3.11l-5.18,0l-1.56-5.02l-1.64,5.02l-5.18,0l4.17,3.1
				l-1.64,5.02l4.21-3.11L-155.36-323.26z"/>
		</g>
		<g id="g4426_3_" transform="translate(408.8766,517.2437)">
			<path id="path4428_3_" class="st7" d="M-145.67-343.54l1.71,4.98l5.27,0.12l-4.21,2.96l1.71,4.98l-4.31-3.15l-4.21,2.96
				l1.55-4.91l-4.31-3.15l5.27,0.12L-145.67-343.54z"/>
		</g>
	</g>
	<path class="st8" d="M283.67,128.29"/>
	<g>
		<path class="st0" d="M210.21,83.16c-0.23-0.15-0.44-0.3-0.67-0.45C209.44,82.71,209.69,82.86,210.21,83.16z"/>
		<path class="st0" d="M228.88,169.23c-9.51,3.45-19.43,3.71-28.53,1.33l-0.72,0.69c0.01,0.38,0.02,0.76,0.03,1.14
			c10.49,3.45,22.2,3.54,33.38-0.51c13.35-4.84,23.35-14.65,28.65-26.5c-2.82,1.38-5.65,2.69-8.48,3.96
			C247.85,158.2,239.49,165.38,228.88,169.23z"/>
		<path class="st0" d="M273.24,120.06l4.15,3.46l-11.66,6.67c0.71-7.18-0.17-14.62-2.88-21.84c-9.63-25.63-38.58-38.74-64.68-29.28
			c-15.55,5.64-26.58,18.02-30.91,32.53c4.26-13.26,14.49-24.52,28.8-29.71c10.47-3.79,21.42-3.72,31.25-0.53
			c-1.91,2.77-4.59,5.31-7.68,7.6c-4.42-3.1-7.98-5.01-9.42-5.81c3.11,2.07,5.95,4.23,8.57,6.44c-4.1,2.93-8.83,5.44-13.38,7.52
			c-1.07-1.6-2.19-3.21-3.37-4.82c0.8,1.2,1.78,2.92,2.88,5.04c-8.48,3.82-16.24,6.12-18.05,6.67c7.31-1.3,13.55-3.1,18.85-5.1
			c2,4.03,4.33,9.23,6.7,15.01c-8.23,3.54-16.67,6.24-23.98,7.93c9.44-1.46,17.62-3.68,24.65-6.26c2.2,5.46,4.4,11.37,6.39,17.27
			c-11.07,3.97-22.79,6.83-33.35,8.45c13.07-0.68,24.44-3.05,34.11-6.15c1.65,5.05,3.12,10.06,4.27,14.72
			c-2.94,1.1-5.9,2.15-8.88,3.13c-7.31,2.4-14.75,4.44-22.27,5.97c-7.52,1.52-15.16,2.57-22.79,2.7c-0.95,0.01-1.91,0.01-2.86,0
			l-1.38-0.04l-1.33-0.06c-1.63-0.1-3.26-0.26-4.89-0.51c-0.14-0.02-0.29-0.05-0.43-0.07c-1.77-0.29-3.54-0.69-5.27-1.26
			c-1.72-0.57-3.42-1.32-4.95-2.35c-1.52-1.02-2.89-2.37-3.75-4.03c-0.87-1.65-1.17-3.58-1-5.43c0.16-1.86,0.73-3.66,1.49-5.35
			c0.76-1.69,1.71-3.3,2.77-4.84c1.06-1.54,2.22-3.01,3.44-4.44c1.23-1.42,2.51-2.79,3.9-4.18c2.01-2.01,4.12-3.93,6.29-5.78
			c0.07-0.42,0.13-0.84,0.2-1.26c0.02-0.1,0.04-0.19,0.06-0.29c-2.57,2-5.08,4.08-7.49,6.31c-1.44,1.32-2.91,2.77-4.31,4.27
			c-1.4,1.51-2.73,3.09-3.95,4.76c-1.22,1.67-2.33,3.43-3.22,5.3c-0.89,1.87-1.57,3.86-1.81,5.95c-0.24,2.07,0.02,4.23,0.9,6.13
			c0.87,1.91,2.29,3.5,3.9,4.75c1.63,1.26,3.46,2.23,5.37,3c1.91,0.77,3.91,1.36,5.95,1.81c1.04,0.23,2.09,0.42,3.15,0.59
			c1.02,0.16,2.05,0.29,3.09,0.39c0.53,0.05,1.05,0.1,1.59,0.14l1.54,0.11c0.99,0.06,1.99,0.1,2.98,0.12
			c7.94,0.18,15.83-0.59,23.61-1.84c7.78-1.26,15.47-3.04,23.04-5.19c15.15-4.32,29.87-10.12,44.06-17.07l21.11-10.96l2.22,5.11
			l11.53-18.12L273.24,120.06z M256.93,109.45c0.08,0.21,0.15,0.42,0.22,0.63c-3.13,3.73-7.21,7.17-11.94,10.32
			c-2.37-6.33-5.72-11.78-9.43-16.43c6.23-4.33,9.97-8.14,11.56-9.92C251.42,98.38,254.72,103.56,256.93,109.45z M230.96,82.71
			c5.02,2.09,9.67,5.03,13.72,8.7c-2.7,3.72-6.38,7.2-10.67,10.41c-3.98-4.59-8.24-8.3-12.08-11.19
			C228.19,86.34,230.88,82.81,230.96,82.71z M206.41,98.64c6-2.32,10.76-4.89,14.41-7.28c4.33,3.89,7.97,7.92,11.03,12
			c-5.25,3.65-11.27,6.9-17.46,9.69C212.2,108.39,209.57,103.55,206.41,98.64z M215.19,114.78c7.41-2.89,13.44-6.14,18.24-9.25
			c3.93,5.62,6.82,11.27,8.98,16.65c-6.22,3.79-13.37,7.11-20.88,9.92C220.06,126.9,218.02,121.02,215.19,114.78z M222.19,134.52
			c8.5-2.88,15.6-6.29,21.28-9.56c1.98,5.45,3.24,10.55,4.13,14.99c-7.36,3.59-14.89,6.84-22.55,9.72
			C224.69,146.33,223.9,141.05,222.19,134.52z M248.78,139.37c-0.1-5.84-1.03-11.18-2.55-16.04c6-3.68,10.1-7.01,12.26-8.91
			c1.66,6.57,1.79,13.23,0.59,19.58l-1.1,0.63C254.94,136.26,251.87,137.84,248.78,139.37z"/>
	</g>
</g>
<g>
	<path class="st0" d="M61.79,251.47c-0.87,0.29-1.72,0.41-2.55,0.36c-0.83-0.05-1.59-0.26-2.29-0.61s-1.32-0.86-1.86-1.51
		s-0.95-1.43-1.25-2.34l-1.5-4.59l11.9-3.94l1.5,4.59c0.3,0.91,0.42,1.79,0.37,2.63s-0.25,1.62-0.6,2.33
		c-0.35,0.71-0.84,1.33-1.48,1.86C63.42,250.77,62.67,251.18,61.79,251.47z M61.05,249.18c0.65-0.22,1.21-0.5,1.67-0.85
		c0.46-0.35,0.82-0.75,1.07-1.19c0.25-0.45,0.4-0.93,0.44-1.47c0.04-0.53-0.04-1.09-0.23-1.68l-0.77-2.33l-8.38,2.78l0.76,2.33
		c0.19,0.59,0.46,1.08,0.81,1.49c0.34,0.4,0.75,0.71,1.22,0.92c0.47,0.21,0.99,0.31,1.56,0.32C59.78,249.5,60.39,249.4,61.05,249.18
		z"/>
	<path class="st0" d="M72.04,259.7l-1.71,0.73l-2.19-5.16l-3.2,1.37l1.72,4.06l-1.65,0.71l-1.72-4.06l-3.26,1.39l2.19,5.16
		l-1.72,0.73l-3.11-7.34l11.53-4.93L72.04,259.7z"/>
	<path class="st0" d="M77.03,269.62l-1.65,0.85l-2.56-4.98l-3.3,1.7l2.16,4.21l-1.66,0.85l-2.16-4.21l-4.54,2.34l-1.08-2.11
		l11.15-5.74L77.03,269.62z"/>
	<path class="st0" d="M82.62,278.96l-1.59,0.97l-2.91-4.79l-2.97,1.81l2.29,3.77l-1.53,0.93l-2.29-3.77l-3.03,1.85l2.91,4.79
		l-1.59,0.97l-4.15-6.81l10.72-6.52L82.62,278.96z"/>
	<path class="st0" d="M85.28,282.94c0.03,0.06,0.06,0.12,0.07,0.18c0.01,0.06,0.01,0.13,0,0.2c-0.01,0.07-0.03,0.16-0.05,0.26
		l-2.86,10.3c0.15-0.14,0.3-0.27,0.45-0.39c0.15-0.12,0.29-0.23,0.43-0.33l6.16-4.49l1.22,1.67l-10.14,7.39l-0.72-0.98
		c-0.11-0.15-0.18-0.29-0.2-0.42c-0.03-0.13-0.01-0.29,0.04-0.47l2.85-10.25c-0.14,0.12-0.28,0.24-0.42,0.36
		c-0.14,0.12-0.27,0.22-0.4,0.3l-6.22,4.54l-1.22-1.67l10.14-7.39l0.73,0.99C85.2,282.8,85.25,282.88,85.28,282.94z"/>
	<path class="st0" d="M95.83,299.86c-0.14,0.03-0.26,0.04-0.35,0.01c-0.1-0.03-0.18-0.09-0.26-0.18c-0.08-0.09-0.13-0.22-0.15-0.39
		c-0.03-0.17-0.06-0.36-0.11-0.58c-0.05-0.22-0.12-0.46-0.23-0.72c-0.11-0.26-0.28-0.52-0.51-0.8c-0.21-0.25-0.43-0.44-0.65-0.57
		c-0.22-0.13-0.43-0.21-0.65-0.25c-0.21-0.04-0.42-0.02-0.62,0.04c-0.2,0.06-0.39,0.17-0.56,0.32c-0.22,0.19-0.36,0.42-0.4,0.67
		c-0.04,0.25-0.02,0.53,0.05,0.83c0.07,0.3,0.18,0.62,0.33,0.95c0.14,0.34,0.29,0.68,0.43,1.04c0.14,0.36,0.27,0.72,0.37,1.09
		c0.1,0.37,0.15,0.74,0.14,1.11c-0.01,0.37-0.1,0.74-0.27,1.1c-0.17,0.36-0.45,0.71-0.84,1.05c-0.43,0.37-0.9,0.64-1.4,0.82
		c-0.5,0.18-1.02,0.24-1.54,0.2c-0.52-0.04-1.04-0.2-1.56-0.47c-0.51-0.27-1-0.67-1.46-1.2c-0.26-0.3-0.49-0.63-0.69-0.97
		c-0.2-0.35-0.36-0.7-0.48-1.07c-0.13-0.37-0.21-0.73-0.27-1.1c-0.05-0.37-0.06-0.73-0.03-1.07l1.3-0.21c0.1,0,0.21,0.01,0.3,0.04
		c0.1,0.03,0.19,0.09,0.26,0.17c0.09,0.11,0.15,0.27,0.17,0.47c0.02,0.2,0.05,0.44,0.09,0.71c0.04,0.27,0.12,0.56,0.23,0.87
		c0.11,0.31,0.31,0.63,0.6,0.97c0.44,0.51,0.9,0.8,1.38,0.87c0.48,0.07,0.94-0.08,1.39-0.47c0.25-0.21,0.4-0.45,0.45-0.71
		c0.05-0.26,0.04-0.54-0.03-0.84c-0.07-0.3-0.19-0.61-0.34-0.94c-0.15-0.33-0.31-0.67-0.45-1.02c-0.15-0.35-0.28-0.71-0.38-1.08
		c-0.11-0.37-0.15-0.74-0.13-1.12c0.02-0.38,0.12-0.76,0.31-1.14c0.19-0.38,0.5-0.76,0.93-1.13c0.35-0.3,0.74-0.52,1.19-0.66
		c0.45-0.14,0.92-0.19,1.4-0.14c0.48,0.05,0.97,0.2,1.46,0.45c0.49,0.26,0.95,0.63,1.38,1.13c0.49,0.56,0.85,1.16,1.09,1.79
		c0.24,0.63,0.34,1.24,0.32,1.85L95.83,299.86z"/>
	<path class="st0" d="M105.67,306.7l-1.32,1.31l-3.96-3.97l-2.47,2.45l3.12,3.13l-1.28,1.26l-3.12-3.13l-2.52,2.49l3.96,3.97
		l-1.32,1.31l-5.63-5.65l8.91-8.82L105.67,306.7z"/>
	<path class="st0" d="M104.43,322.32l-1.8-1.53l8.18-9.5l1.8,1.53L104.43,322.32z"/>
	<path class="st0" d="M116.73,316.23c0.05,0.05,0.09,0.1,0.12,0.15c0.03,0.05,0.05,0.12,0.06,0.19c0.01,0.07,0.02,0.16,0.02,0.26
		l0.3,10.66c0.1-0.18,0.21-0.34,0.32-0.5c0.11-0.16,0.21-0.31,0.31-0.44l4.57-6.09l1.67,1.24l-7.53,10.02l-0.98-0.73
		c-0.15-0.11-0.26-0.23-0.32-0.35c-0.06-0.12-0.1-0.27-0.1-0.46l-0.3-10.61c-0.1,0.16-0.2,0.31-0.3,0.46
		c-0.1,0.15-0.2,0.29-0.29,0.41l-4.62,6.15l-1.67-1.23l7.53-10.02l0.99,0.74C116.61,316.13,116.68,316.18,116.73,316.23z"/>
	<path class="st0" d="M134.1,327.98l-0.99,1.57l-4.77-2.96l-1.97,3.14l4.03,2.5l-0.99,1.58l-4.03-2.49l-2.72,4.32l-2.02-1.25
		l6.67-10.6L134.1,327.98z"/>
	<path class="st0" d="M144.76,340.62c-0.42,0.82-0.95,1.5-1.58,2.06c-0.63,0.55-1.33,0.96-2.1,1.21c-0.76,0.25-1.57,0.35-2.42,0.27
		c-0.85-0.07-1.7-0.32-2.56-0.76c-0.85-0.43-1.56-0.97-2.12-1.61c-0.56-0.64-0.96-1.34-1.2-2.11c-0.24-0.76-0.32-1.56-0.24-2.39
		s0.33-1.66,0.75-2.47c0.42-0.82,0.95-1.5,1.58-2.06c0.64-0.55,1.33-0.96,2.1-1.21c0.76-0.25,1.57-0.34,2.43-0.27
		c0.85,0.07,1.71,0.33,2.56,0.76c0.85,0.43,1.56,0.97,2.11,1.61c0.56,0.64,0.95,1.34,1.19,2.1c0.24,0.76,0.32,1.55,0.24,2.39
		C145.43,338.98,145.18,339.8,144.76,340.62z M142.6,339.52c0.32-0.61,0.52-1.2,0.6-1.77c0.09-0.57,0.06-1.1-0.07-1.59
		c-0.13-0.49-0.37-0.94-0.72-1.35c-0.35-0.4-0.8-0.74-1.35-1.02c-0.55-0.28-1.1-0.44-1.63-0.49c-0.54-0.04-1.05,0.02-1.53,0.21
		c-0.48,0.18-0.93,0.47-1.35,0.87c-0.42,0.4-0.78,0.91-1.1,1.51c-0.32,0.61-0.51,1.2-0.6,1.77c-0.08,0.57-0.06,1.1,0.08,1.59
		c0.14,0.49,0.38,0.94,0.73,1.34c0.35,0.4,0.8,0.75,1.35,1.03c0.55,0.28,1.1,0.44,1.63,0.49c0.53,0.04,1.04-0.03,1.52-0.21
		c0.48-0.18,0.93-0.47,1.34-0.87C141.92,340.64,142.29,340.13,142.6,339.52z"/>
	<path class="st0" d="M150.02,344.26l-1.84,4.53l-2.19-0.87l4.71-11.59l3.59,1.43c0.8,0.32,1.46,0.67,1.97,1.06
		c0.51,0.39,0.89,0.81,1.13,1.24c0.25,0.44,0.37,0.9,0.38,1.37c0.01,0.48-0.09,0.96-0.29,1.45c-0.16,0.39-0.37,0.74-0.62,1.04
		c-0.26,0.3-0.55,0.55-0.89,0.74c-0.33,0.2-0.71,0.34-1.12,0.42c-0.41,0.08-0.85,0.11-1.31,0.07c0.21,0.26,0.36,0.58,0.45,0.95
		l1.21,5.45l-1.97-0.78c-0.19-0.08-0.34-0.18-0.44-0.3c-0.1-0.13-0.17-0.28-0.21-0.46l-0.97-4.69c-0.04-0.17-0.1-0.31-0.18-0.42
		c-0.09-0.1-0.24-0.2-0.46-0.28L150.02,344.26z M150.65,342.72l1.37,0.54c0.41,0.16,0.79,0.26,1.14,0.28
		c0.35,0.02,0.66-0.02,0.93-0.12c0.27-0.1,0.51-0.25,0.7-0.46c0.2-0.21,0.36-0.46,0.48-0.75c0.24-0.59,0.23-1.12-0.04-1.59
		c-0.27-0.47-0.8-0.87-1.61-1.19l-1.4-0.56L150.65,342.72z"/>
	<path class="st0" d="M166.85,350.4c0.02,0.21,0.05,0.43,0.07,0.64c0.14-0.18,0.28-0.35,0.42-0.52c0.14-0.17,0.29-0.33,0.43-0.48
		l5.57-5.6c0.07-0.07,0.14-0.12,0.2-0.16c0.06-0.04,0.13-0.06,0.19-0.06c0.06,0,0.14,0,0.21,0.01c0.07,0.02,0.16,0.04,0.26,0.07
		l1.71,0.49l-3.55,11.98l-2-0.57l2.29-7.74c0.04-0.14,0.09-0.3,0.15-0.47c0.06-0.17,0.12-0.34,0.19-0.51l-5.7,5.74
		c-0.13,0.13-0.28,0.22-0.44,0.27c-0.16,0.05-0.33,0.04-0.51-0.01l-0.31-0.09c-0.18-0.05-0.32-0.14-0.43-0.26
		c-0.11-0.12-0.18-0.28-0.22-0.45l-1.72-7.89c-0.03,0.19-0.07,0.37-0.11,0.55c-0.04,0.18-0.09,0.34-0.13,0.49l-2.29,7.74l-2-0.57
		l3.55-11.98l1.71,0.49c0.1,0.03,0.19,0.06,0.26,0.08c0.07,0.03,0.13,0.06,0.19,0.1c0.05,0.04,0.1,0.09,0.13,0.16
		c0.04,0.06,0.06,0.14,0.08,0.24l1.67,7.7C166.79,349.98,166.83,350.19,166.85,350.4z"/>
	<path class="st0" d="M188.49,359.89l-1.8-0.33c-0.2-0.04-0.36-0.12-0.47-0.24s-0.18-0.26-0.21-0.42l-0.46-2.67l-5.17-0.94
		l-1.41,2.33c-0.07,0.12-0.18,0.22-0.34,0.31c-0.16,0.08-0.33,0.11-0.53,0.07l-1.81-0.33l7.24-11.37l2.38,0.43L188.49,359.89z
		 M181.28,353.78l3.98,0.72l-0.74-4.36c-0.03-0.19-0.07-0.42-0.11-0.68c-0.04-0.26-0.07-0.54-0.09-0.85
		c-0.14,0.27-0.27,0.53-0.39,0.76c-0.12,0.24-0.24,0.44-0.35,0.61L181.28,353.78z"/>
	<path class="st0" d="M200.82,348.67l-0.22,1.89l-3.8-0.41l-1.23,10.5l-2.35-0.26l1.23-10.5l-3.82-0.42l0.22-1.89L200.82,348.67z"/>
	<path class="st0" d="M205.09,361.35l-2.37-0.12l0.74-12.45l2.37,0.12L205.09,361.35z"/>
	<path class="st0" d="M222.01,355.14c0.01,0.91-0.14,1.76-0.44,2.55c-0.3,0.78-0.73,1.47-1.29,2.04c-0.56,0.58-1.23,1.04-2.02,1.37
		s-1.66,0.51-2.62,0.53c-0.96,0.02-1.84-0.13-2.64-0.43c-0.8-0.3-1.48-0.74-2.06-1.3c-0.57-0.56-1.02-1.23-1.33-2
		c-0.32-0.77-0.48-1.62-0.49-2.53c-0.01-0.91,0.14-1.76,0.44-2.55s0.73-1.47,1.29-2.04c0.56-0.58,1.24-1.04,2.03-1.37
		c0.79-0.33,1.67-0.51,2.63-0.53c0.96-0.02,1.84,0.13,2.63,0.44c0.8,0.31,1.48,0.74,2.04,1.3c0.57,0.56,1.01,1.22,1.33,1.99
		C221.84,353.38,222,354.22,222.01,355.14z M219.58,355.18c-0.01-0.68-0.11-1.3-0.3-1.83c-0.19-0.54-0.46-1-0.81-1.37
		c-0.35-0.37-0.77-0.66-1.27-0.85c-0.5-0.19-1.06-0.28-1.68-0.27c-0.62,0.01-1.18,0.12-1.68,0.33c-0.5,0.21-0.92,0.51-1.26,0.89
		c-0.35,0.39-0.61,0.85-0.79,1.4c-0.18,0.55-0.27,1.16-0.26,1.85c0.01,0.68,0.11,1.29,0.3,1.83s0.47,1,0.82,1.37
		s0.78,0.65,1.28,0.84c0.5,0.19,1.06,0.28,1.68,0.27c0.62-0.01,1.18-0.12,1.67-0.33s0.91-0.51,1.25-0.89
		c0.34-0.38,0.6-0.85,0.78-1.39C219.5,356.48,219.59,355.86,219.58,355.18z"/>
	<path class="st0" d="M226.79,348.47c0.07,0,0.14,0.01,0.19,0.03c0.06,0.02,0.12,0.05,0.17,0.09s0.12,0.1,0.2,0.17l7.54,7.51
		c-0.04-0.2-0.08-0.39-0.11-0.58c-0.03-0.19-0.05-0.37-0.07-0.53l-0.82-7.53l2.07-0.24l1.35,12.38l-1.22,0.14
		c-0.18,0.02-0.34,0.01-0.47-0.03c-0.13-0.04-0.26-0.13-0.39-0.27l-7.51-7.48c0.04,0.18,0.07,0.36,0.1,0.54
		c0.03,0.18,0.05,0.34,0.07,0.49l0.83,7.6l-2.07,0.24l-1.35-12.38l1.23-0.14C226.63,348.47,226.72,348.47,226.79,348.47z"/>
	<path class="st0" d="M250.54,346.75c-0.04,0.14-0.09,0.24-0.16,0.31c-0.07,0.07-0.17,0.12-0.28,0.14
		c-0.11,0.03-0.25,0.01-0.41-0.04c-0.16-0.05-0.35-0.11-0.57-0.18c-0.22-0.06-0.47-0.11-0.75-0.14c-0.28-0.03-0.6,0-0.95,0.08
		c-0.32,0.07-0.59,0.17-0.81,0.3c-0.22,0.13-0.4,0.28-0.53,0.45c-0.13,0.17-0.22,0.36-0.26,0.57c-0.04,0.21-0.03,0.42,0.02,0.64
		c0.06,0.29,0.2,0.51,0.4,0.66c0.21,0.15,0.46,0.27,0.75,0.34c0.3,0.07,0.63,0.13,1,0.16s0.74,0.06,1.13,0.1
		c0.38,0.04,0.77,0.1,1.14,0.19c0.38,0.08,0.73,0.22,1.05,0.4c0.32,0.18,0.61,0.43,0.85,0.75c0.24,0.32,0.42,0.73,0.52,1.23
		c0.12,0.55,0.14,1.09,0.05,1.61s-0.28,1-0.57,1.44c-0.29,0.44-0.68,0.82-1.17,1.14c-0.49,0.32-1.08,0.56-1.76,0.72
		c-0.4,0.09-0.79,0.14-1.19,0.15c-0.4,0.01-0.79-0.02-1.17-0.08c-0.38-0.06-0.75-0.16-1.1-0.28s-0.67-0.29-0.96-0.47l0.43-1.24
		c0.05-0.09,0.11-0.17,0.18-0.25s0.17-0.12,0.28-0.15c0.14-0.03,0.31-0.01,0.5,0.07c0.19,0.08,0.42,0.16,0.67,0.25
		c0.26,0.09,0.55,0.16,0.88,0.2c0.33,0.05,0.71,0.02,1.14-0.07c0.66-0.15,1.13-0.42,1.43-0.8c0.29-0.39,0.38-0.87,0.25-1.44
		c-0.07-0.32-0.21-0.56-0.42-0.73c-0.21-0.17-0.46-0.29-0.76-0.36c-0.3-0.08-0.63-0.12-1-0.14c-0.37-0.02-0.74-0.04-1.12-0.08
		c-0.38-0.03-0.76-0.09-1.14-0.17c-0.38-0.08-0.73-0.22-1.05-0.41c-0.32-0.19-0.61-0.46-0.86-0.8c-0.25-0.34-0.43-0.79-0.55-1.35
		c-0.1-0.44-0.1-0.9-0.01-1.36s0.27-0.89,0.55-1.3c0.28-0.4,0.64-0.76,1.11-1.07c0.46-0.31,1.01-0.54,1.66-0.68
		c0.73-0.16,1.43-0.2,2.1-0.12c0.67,0.09,1.26,0.28,1.79,0.59L250.54,346.75z"/>
	<path class="st0" d="M261.3,349.26l1.39,4.63l-2.27,0.69l-1.39-4.63l-6.62-5.94l2-0.61c0.2-0.06,0.37-0.06,0.51,0
		c0.14,0.06,0.27,0.15,0.4,0.27l3.43,3.3c0.2,0.2,0.38,0.39,0.54,0.57s0.31,0.36,0.45,0.54c0.01-0.23,0.03-0.47,0.06-0.71
		c0.03-0.24,0.08-0.5,0.14-0.76l1.02-4.66c0.03-0.14,0.08-0.28,0.18-0.42c0.09-0.14,0.23-0.24,0.42-0.3l2.01-0.61L261.3,349.26z"/>
	<path class="st0" d="M272.93,339.43c-0.01,0.14-0.05,0.25-0.11,0.33c-0.06,0.08-0.15,0.14-0.26,0.18
		c-0.11,0.04-0.25,0.05-0.42,0.02c-0.17-0.03-0.37-0.06-0.59-0.09c-0.22-0.03-0.48-0.04-0.76-0.02c-0.28,0.01-0.59,0.09-0.93,0.22
		c-0.31,0.12-0.56,0.26-0.76,0.42c-0.2,0.16-0.35,0.33-0.46,0.52c-0.11,0.19-0.17,0.39-0.17,0.6c-0.01,0.21,0.03,0.42,0.11,0.63
		c0.1,0.27,0.27,0.47,0.5,0.59c0.23,0.12,0.49,0.2,0.8,0.23c0.31,0.03,0.64,0.03,1.01,0c0.37-0.02,0.75-0.05,1.13-0.06
		c0.39-0.02,0.77-0.01,1.16,0.01c0.39,0.03,0.75,0.11,1.1,0.24c0.35,0.13,0.66,0.34,0.95,0.62c0.29,0.28,0.52,0.66,0.71,1.14
		c0.2,0.53,0.3,1.05,0.29,1.58c-0.01,0.53-0.12,1.03-0.35,1.51c-0.22,0.48-0.55,0.91-0.99,1.3c-0.43,0.39-0.98,0.72-1.64,0.97
		c-0.38,0.15-0.76,0.25-1.16,0.32c-0.4,0.07-0.79,0.1-1.17,0.1c-0.39,0-0.77-0.04-1.13-0.12c-0.37-0.07-0.71-0.18-1.03-0.32
		l0.24-1.29c0.03-0.1,0.08-0.19,0.14-0.27c0.07-0.08,0.15-0.15,0.25-0.19c0.14-0.05,0.31-0.05,0.51-0.01c0.2,0.05,0.44,0.1,0.7,0.15
		s0.57,0.07,0.9,0.07c0.33,0,0.71-0.08,1.12-0.24c0.63-0.24,1.06-0.58,1.29-1c0.23-0.43,0.25-0.91,0.04-1.46
		c-0.12-0.31-0.29-0.52-0.52-0.66c-0.23-0.13-0.5-0.21-0.81-0.25c-0.31-0.03-0.64-0.03-1.01,0.01c-0.36,0.04-0.74,0.07-1.12,0.09
		c-0.38,0.02-0.76,0.03-1.15,0c-0.39-0.02-0.75-0.11-1.1-0.25c-0.35-0.14-0.67-0.36-0.97-0.66c-0.29-0.3-0.54-0.72-0.75-1.25
		c-0.16-0.42-0.24-0.87-0.22-1.34c0.02-0.47,0.13-0.92,0.35-1.36c0.21-0.44,0.52-0.85,0.93-1.22s0.93-0.68,1.54-0.92
		c0.7-0.27,1.39-0.41,2.06-0.43c0.67-0.02,1.29,0.09,1.86,0.31L272.93,339.43z"/>
	<path class="st0" d="M283.69,332.04l0.81,1.72l-3.47,1.63l4.47,9.54l-2.14,1.01l-4.47-9.54l-3.48,1.64l-0.81-1.72L283.69,332.04z"
		/>
	<path class="st0" d="M293,326.85l0.9,1.6l-4.92,2.77l1.69,3.01l3.88-2.18l0.87,1.55l-3.88,2.18l1.73,3.07l4.92-2.77l0.91,1.61
		l-7,3.95l-6.1-10.84L293,326.85z"/>
	<path class="st0" d="M305.98,327.74c0.18,0.11,0.37,0.23,0.55,0.35c-0.05-0.22-0.1-0.43-0.14-0.65c-0.04-0.21-0.07-0.43-0.1-0.63
		l-0.84-7.81c-0.01-0.1-0.01-0.18,0-0.25c0.01-0.07,0.04-0.13,0.07-0.19c0.04-0.05,0.09-0.11,0.15-0.15
		c0.06-0.05,0.13-0.1,0.22-0.16l1.47-1.02l7.11,10.21l-1.72,1.19l-4.59-6.59c-0.08-0.12-0.17-0.26-0.27-0.41
		c-0.09-0.15-0.19-0.31-0.28-0.47l0.87,7.99c0.02,0.18,0,0.35-0.07,0.5c-0.07,0.15-0.17,0.28-0.33,0.39l-0.27,0.19
		c-0.16,0.11-0.32,0.17-0.48,0.17c-0.17,0.01-0.33-0.03-0.5-0.11l-7.25-3.58c0.13,0.14,0.25,0.28,0.36,0.43
		c0.11,0.14,0.21,0.28,0.3,0.41l4.59,6.59l-1.72,1.19l-7.11-10.21l1.47-1.02c0.09-0.06,0.16-0.11,0.23-0.15
		c0.07-0.04,0.13-0.07,0.19-0.08c0.06-0.02,0.13-0.02,0.21-0.01c0.07,0.01,0.15,0.04,0.24,0.08l7.08,3.5
		C305.61,327.52,305.8,327.62,305.98,327.74z"/>
	<path class="st0" d="M317.12,311.99c0.03,0.14,0.03,0.25,0,0.35c-0.03,0.09-0.09,0.18-0.18,0.25c-0.09,0.08-0.22,0.13-0.39,0.15
		c-0.17,0.03-0.37,0.06-0.59,0.11s-0.47,0.12-0.73,0.23c-0.26,0.1-0.53,0.27-0.81,0.51c-0.25,0.21-0.45,0.43-0.58,0.64
		c-0.14,0.22-0.22,0.43-0.26,0.64s-0.03,0.42,0.03,0.62c0.06,0.2,0.17,0.39,0.31,0.56c0.19,0.22,0.41,0.36,0.67,0.4
		c0.25,0.04,0.53,0.02,0.83-0.05c0.3-0.07,0.62-0.18,0.96-0.33c0.34-0.14,0.69-0.29,1.05-0.43c0.36-0.14,0.73-0.27,1.1-0.37
		c0.38-0.1,0.75-0.15,1.12-0.14c0.37,0.01,0.74,0.1,1.1,0.27c0.36,0.17,0.71,0.45,1.04,0.84c0.36,0.43,0.63,0.89,0.79,1.4
		c0.17,0.5,0.22,1.01,0.17,1.53c-0.05,0.52-0.22,1.04-0.5,1.55c-0.28,0.51-0.69,1-1.23,1.45c-0.31,0.26-0.64,0.49-0.99,0.68
		s-0.71,0.35-1.08,0.48c-0.37,0.12-0.74,0.21-1.11,0.26c-0.37,0.05-0.73,0.06-1.08,0.03l-0.19-1.29c0-0.1,0.01-0.2,0.05-0.3
		c0.03-0.1,0.09-0.19,0.18-0.26c0.11-0.09,0.27-0.15,0.48-0.17c0.21-0.02,0.44-0.05,0.71-0.09c0.27-0.04,0.56-0.12,0.88-0.23
		s0.64-0.31,0.98-0.59c0.52-0.44,0.82-0.89,0.9-1.37c0.08-0.48-0.07-0.94-0.45-1.38c-0.21-0.25-0.45-0.4-0.71-0.45
		c-0.26-0.05-0.54-0.04-0.84,0.03c-0.3,0.07-0.62,0.18-0.95,0.33c-0.33,0.15-0.68,0.3-1.03,0.45c-0.35,0.15-0.71,0.27-1.09,0.38
		c-0.37,0.1-0.75,0.15-1.13,0.13c-0.38-0.02-0.76-0.12-1.13-0.31c-0.38-0.19-0.75-0.5-1.12-0.93c-0.29-0.35-0.51-0.74-0.64-1.19
		c-0.14-0.45-0.18-0.91-0.12-1.4c0.06-0.48,0.22-0.97,0.48-1.45c0.26-0.49,0.65-0.94,1.16-1.37c0.57-0.48,1.18-0.84,1.81-1.08
		c0.63-0.23,1.25-0.34,1.86-0.31L317.12,311.99z"/>
	<path class="st0" d="M338.04,305.65l-1.27,1.32c-0.14,0.15-0.3,0.24-0.46,0.26s-0.32,0.01-0.47-0.05l-2.5-1.07l-3.66,3.8l1.18,2.44
		c0.06,0.13,0.09,0.28,0.07,0.45c-0.02,0.17-0.1,0.33-0.23,0.48l-1.28,1.33l-5.53-12.2l1.68-1.75L338.04,305.65z M328.92,308.35
		l2.82-2.93l-4.07-1.74c-0.18-0.08-0.39-0.17-0.63-0.28c-0.24-0.11-0.49-0.24-0.76-0.38c0.15,0.26,0.3,0.51,0.42,0.74
		c0.13,0.23,0.23,0.44,0.32,0.62L328.92,308.35z"/>
	<path class="st0" d="M342.55,297.48c0.33-0.42,0.59-0.81,0.76-1.18c0.17-0.37,0.31-0.74,0.4-1.12l-1.77-1.41l-1,1.24
		c-0.1,0.12-0.2,0.19-0.32,0.2c-0.12,0.02-0.23-0.01-0.32-0.09l-1.02-0.81l2.65-3.3l3.94,3.13c-0.02,0.39-0.08,0.78-0.16,1.16
		s-0.21,0.75-0.37,1.13c-0.16,0.38-0.37,0.76-0.61,1.14c-0.24,0.39-0.52,0.78-0.85,1.19c-0.58,0.72-1.24,1.29-1.98,1.7
		c-0.74,0.41-1.5,0.66-2.3,0.76s-1.6,0.02-2.41-0.21c-0.81-0.24-1.58-0.64-2.3-1.22c-0.73-0.58-1.31-1.24-1.72-1.97
		c-0.42-0.73-0.67-1.49-0.75-2.29c-0.08-0.8,0.01-1.61,0.28-2.44c0.27-0.83,0.72-1.64,1.36-2.43c0.65-0.81,1.33-1.42,2.05-1.82
		c0.71-0.4,1.42-0.66,2.13-0.77l0.39,1.19c0.08,0.24,0.05,0.44-0.09,0.62c-0.09,0.11-0.21,0.19-0.38,0.25
		c-0.2,0.08-0.41,0.16-0.62,0.25c-0.21,0.09-0.42,0.2-0.63,0.33c-0.21,0.13-0.43,0.3-0.66,0.5c-0.23,0.2-0.46,0.45-0.7,0.75
		c-0.39,0.49-0.67,1-0.83,1.52c-0.16,0.52-0.2,1.05-0.12,1.56c0.08,0.52,0.27,1.02,0.57,1.51c0.3,0.49,0.71,0.94,1.23,1.35
		c0.56,0.45,1.13,0.76,1.69,0.95c0.57,0.19,1.12,0.26,1.65,0.21c0.53-0.05,1.04-0.21,1.52-0.48
		C341.74,298.32,342.17,297.95,342.55,297.48z"/>
	<path class="st0" d="M343.56,277.64l1.54,1.02l-3.15,4.68l2.88,1.91l2.48-3.69l1.49,0.99l-2.48,3.69l2.94,1.95l3.15-4.68l1.54,1.02
		l-4.49,6.66l-10.38-6.9L343.56,277.64z"/>
	<path class="st0" d="M346.1,273.51c0.04-0.06,0.09-0.1,0.14-0.14c0.05-0.04,0.11-0.07,0.18-0.09c0.07-0.02,0.15-0.04,0.25-0.06
		l10.56-1.85c-0.19-0.08-0.37-0.16-0.54-0.24c-0.17-0.08-0.33-0.17-0.48-0.25l-6.65-3.63l1.01-1.82l10.95,5.97l-0.59,1.07
		c-0.09,0.16-0.19,0.29-0.3,0.37c-0.11,0.08-0.26,0.14-0.45,0.17l-10.51,1.84c0.17,0.07,0.34,0.15,0.5,0.23
		c0.16,0.08,0.31,0.15,0.44,0.23l6.72,3.67l-1.01,1.82l-10.94-5.97l0.6-1.08C346.01,273.64,346.05,273.56,346.1,273.51z"/>
	<path class="st0" d="M364.58,257.59c0.05-0.12,0.14-0.2,0.27-0.25l1.29-0.46c0.37,0.72,0.56,1.49,0.56,2.31
		c0,0.82-0.21,1.71-0.63,2.68c-0.38,0.86-0.87,1.58-1.46,2.14s-1.25,0.98-1.99,1.25c-0.73,0.27-1.52,0.38-2.35,0.33
		c-0.83-0.05-1.68-0.25-2.53-0.62c-0.86-0.37-1.59-0.85-2.17-1.45c-0.59-0.6-1.03-1.27-1.32-2.02c-0.29-0.75-0.42-1.55-0.38-2.41
		c0.03-0.86,0.24-1.73,0.63-2.61c0.38-0.86,0.85-1.56,1.4-2.09c0.56-0.53,1.16-0.93,1.81-1.2l0.67,1.15
		c0.04,0.07,0.08,0.15,0.09,0.24c0.02,0.09,0,0.19-0.05,0.31c-0.06,0.12-0.16,0.23-0.31,0.32s-0.33,0.21-0.52,0.36
		c-0.2,0.15-0.41,0.36-0.64,0.62c-0.23,0.26-0.44,0.63-0.65,1.09c-0.24,0.55-0.37,1.09-0.38,1.63c-0.01,0.54,0.08,1.05,0.29,1.53
		c0.2,0.48,0.52,0.92,0.93,1.32c0.42,0.4,0.94,0.73,1.56,1c0.65,0.28,1.26,0.43,1.84,0.46c0.58,0.03,1.12-0.04,1.6-0.21
		s0.91-0.43,1.28-0.78c0.37-0.35,0.67-0.77,0.88-1.27c0.13-0.29,0.23-0.57,0.3-0.82c0.07-0.25,0.12-0.49,0.14-0.72
		s0.01-0.46-0.02-0.69c-0.03-0.23-0.08-0.46-0.17-0.71c-0.02-0.07-0.04-0.15-0.04-0.22C364.53,257.73,364.54,257.66,364.58,257.59z"
		/>
	<path class="st0" d="M366.46,246.83l4.61,1.52l-0.76,2.24l-4.61-1.52l-8.74,1.99l0.67-1.97c0.07-0.19,0.17-0.33,0.3-0.42
		s0.28-0.14,0.45-0.17l4.71-0.9c0.28-0.05,0.54-0.09,0.78-0.11s0.48-0.04,0.71-0.05c-0.18-0.14-0.36-0.29-0.54-0.45
		c-0.18-0.16-0.36-0.34-0.55-0.55l-3.22-3.49c-0.1-0.1-0.18-0.23-0.24-0.38c-0.06-0.16-0.06-0.33,0-0.52l0.67-1.98L366.46,246.83z"
		/>
</g>
<g>
	<path class="st0" d="M62.59,163.92c0.02-0.09,0.05-0.17,0.1-0.26c0.05-0.08,0.12-0.16,0.22-0.22l1.82-1.18
		c0.71,0.81,1.18,1.75,1.41,2.81c0.23,1.06,0.22,2.26-0.04,3.59c-0.24,1.22-0.66,2.28-1.26,3.16c-0.6,0.89-1.32,1.6-2.18,2.13
		c-0.85,0.53-1.81,0.88-2.87,1.04c-1.06,0.16-2.17,0.13-3.33-0.1c-1.18-0.23-2.22-0.66-3.13-1.26c-0.91-0.61-1.65-1.35-2.22-2.24
		c-0.57-0.88-0.96-1.88-1.15-2.99c-0.2-1.11-0.17-2.29,0.07-3.53c0.12-0.6,0.28-1.16,0.49-1.68c0.21-0.51,0.45-0.98,0.73-1.41
		c0.28-0.43,0.58-0.81,0.91-1.15c0.33-0.34,0.69-0.63,1.06-0.87l1.42,1.59c0.09,0.1,0.16,0.22,0.22,0.34
		c0.06,0.13,0.07,0.29,0.03,0.49c-0.03,0.13-0.08,0.25-0.16,0.36c-0.08,0.11-0.18,0.22-0.29,0.33c-0.11,0.12-0.23,0.24-0.36,0.38
		c-0.13,0.14-0.26,0.31-0.38,0.51c-0.13,0.2-0.25,0.44-0.36,0.72c-0.11,0.28-0.21,0.61-0.29,1.01c-0.13,0.68-0.14,1.32-0.01,1.93
		c0.13,0.61,0.37,1.15,0.73,1.64c0.36,0.49,0.83,0.91,1.41,1.25c0.58,0.35,1.26,0.6,2.03,0.75c0.81,0.16,1.55,0.19,2.23,0.09
		c0.67-0.1,1.26-0.3,1.77-0.6c0.51-0.3,0.92-0.69,1.25-1.16c0.33-0.47,0.55-1,0.66-1.59c0.07-0.34,0.11-0.65,0.13-0.94
		c0.02-0.29,0.02-0.56-0.02-0.81c-0.03-0.25-0.09-0.5-0.18-0.75c-0.08-0.24-0.2-0.49-0.34-0.75c-0.05-0.1-0.1-0.21-0.12-0.32
		C62.57,164.14,62.57,164.03,62.59,163.92z"/>
	<path class="st0" d="M65.83,156.47l1.72-5.83l2.87,0.85l-2.79,9.48l-15.48-4.59l1.07-3.65L65.83,156.47z"/>
	<path class="st0" d="M69.21,132.45c1.08,0.44,2.01,1.04,2.79,1.79c0.78,0.76,1.37,1.62,1.78,2.59c0.41,0.97,0.62,2.01,0.61,3.14
		c0,1.13-0.24,2.28-0.72,3.47c-0.48,1.18-1.11,2.18-1.89,3c-0.78,0.82-1.66,1.43-2.63,1.84c-0.97,0.41-1.99,0.62-3.08,0.62
		c-1.08,0-2.17-0.22-3.25-0.66c-1.08-0.44-2.01-1.04-2.79-1.79c-0.78-0.76-1.37-1.62-1.78-2.59c-0.4-0.97-0.61-2.02-0.6-3.15
		c0-1.13,0.24-2.29,0.72-3.47c0.48-1.18,1.11-2.18,1.89-2.99s1.66-1.42,2.62-1.83c0.96-0.41,1.99-0.62,3.07-0.62
		C67.06,131.8,68.14,132.02,69.21,132.45z M67.76,136.06c-0.74-0.3-1.44-0.47-2.11-0.52c-0.67-0.04-1.29,0.03-1.84,0.23
		c-0.56,0.2-1.05,0.52-1.49,0.96c-0.43,0.44-0.78,1-1.06,1.67c-0.27,0.68-0.41,1.33-0.41,1.95c0,0.62,0.14,1.2,0.4,1.73
		c0.26,0.53,0.65,1.02,1.17,1.45c0.51,0.43,1.14,0.8,1.88,1.1c0.75,0.3,1.46,0.48,2.13,0.52c0.67,0.04,1.28-0.03,1.84-0.23
		c0.56-0.2,1.05-0.52,1.48-0.97c0.43-0.45,0.78-1.01,1.06-1.69c0.27-0.67,0.41-1.32,0.4-1.94c0-0.62-0.14-1.19-0.4-1.72
		c-0.26-0.53-0.65-1.01-1.17-1.45S68.5,136.37,67.76,136.06z"/>
	<path class="st0" d="M78.32,126.35c0.25-0.45,0.39-0.89,0.44-1.32c0.05-0.43,0-0.84-0.14-1.24c-0.14-0.39-0.37-0.76-0.69-1.11
		c-0.32-0.34-0.73-0.65-1.23-0.93l-8.38-4.61l1.83-3.33l8.38,4.61c0.87,0.48,1.58,1.06,2.15,1.74c0.57,0.69,0.97,1.44,1.2,2.26
		c0.23,0.82,0.28,1.69,0.16,2.62c-0.13,0.92-0.45,1.86-0.98,2.82c-0.53,0.96-1.15,1.74-1.85,2.34c-0.71,0.6-1.47,1.03-2.29,1.27
		c-0.82,0.24-1.67,0.31-2.54,0.19c-0.88-0.12-1.75-0.41-2.62-0.89l-8.38-4.61l1.83-3.33l8.37,4.61c0.5,0.27,0.98,0.45,1.44,0.54
		c0.46,0.09,0.9,0.09,1.31-0.01c0.41-0.09,0.78-0.27,1.12-0.55C77.79,127.15,78.08,126.79,78.32,126.35z"/>
	<path class="st0" d="M87.7,102.56c0.95,0.67,1.71,1.46,2.28,2.37c0.57,0.9,0.93,1.87,1.09,2.89c0.16,1.02,0.1,2.08-0.17,3.17
		c-0.27,1.09-0.78,2.15-1.52,3.19l-3.68,5.2l-13.18-9.33l3.68-5.2c0.74-1.04,1.57-1.87,2.51-2.49c0.94-0.62,1.91-1.02,2.92-1.22
		c1.01-0.19,2.04-0.17,3.08,0.07C85.75,101.44,86.75,101.89,87.7,102.56z M85.45,105.74c-0.65-0.46-1.3-0.79-1.95-0.99
		c-0.65-0.2-1.26-0.27-1.86-0.2c-0.59,0.06-1.15,0.26-1.68,0.58c-0.53,0.33-1,0.79-1.42,1.38l-1.47,2.08l8.48,6l1.47-2.08
		c0.42-0.59,0.7-1.19,0.83-1.8s0.13-1.2-0.01-1.78c-0.14-0.58-0.41-1.14-0.81-1.68C86.64,106.71,86.11,106.21,85.45,105.74z"/>
	<path class="st0" d="M102.85,91.51c0.06-0.06,0.14-0.12,0.22-0.16c0.09-0.04,0.19-0.07,0.3-0.07l2.17-0.03
		c0.17,1.06,0.07,2.1-0.29,3.12c-0.36,1.02-1.01,2.03-1.94,3.02c-0.85,0.91-1.76,1.58-2.74,2.02c-0.98,0.44-1.97,0.65-2.98,0.65
		c-1.01,0-2-0.21-2.99-0.63c-0.99-0.42-1.91-1.03-2.78-1.84c-0.88-0.82-1.55-1.73-2-2.73c-0.45-1-0.68-2.02-0.7-3.07
		c-0.02-1.05,0.18-2.1,0.6-3.14s1.06-2.03,1.93-2.96c0.42-0.45,0.85-0.84,1.3-1.16c0.45-0.32,0.91-0.59,1.37-0.81
		c0.46-0.22,0.92-0.38,1.39-0.49c0.46-0.11,0.92-0.17,1.36-0.18l0.36,2.09c0.02,0.13,0.02,0.27,0.01,0.41
		c-0.01,0.14-0.09,0.28-0.23,0.43c-0.09,0.1-0.2,0.17-0.33,0.22c-0.12,0.05-0.26,0.09-0.42,0.13c-0.15,0.04-0.32,0.09-0.51,0.14
		s-0.38,0.13-0.59,0.23c-0.21,0.1-0.44,0.25-0.69,0.42c-0.25,0.18-0.5,0.41-0.78,0.7c-0.47,0.5-0.81,1.05-1.03,1.63
		c-0.21,0.58-0.3,1.17-0.25,1.78c0.05,0.6,0.22,1.21,0.53,1.81c0.31,0.6,0.75,1.17,1.33,1.71c0.6,0.56,1.22,0.98,1.85,1.25
		c0.63,0.27,1.23,0.41,1.82,0.43c0.59,0.01,1.15-0.1,1.67-0.32c0.53-0.23,0.99-0.56,1.4-1c0.24-0.25,0.44-0.49,0.61-0.72
		c0.17-0.23,0.31-0.46,0.42-0.7c0.11-0.23,0.19-0.48,0.25-0.73c0.06-0.25,0.09-0.52,0.1-0.82c0.01-0.12,0.03-0.23,0.07-0.34
		C102.72,91.69,102.78,91.59,102.85,91.51z"/>
	<path class="st0" d="M115.66,74.89c0.76,0.89,1.31,1.84,1.66,2.87c0.34,1.03,0.48,2.07,0.39,3.11s-0.38,2.07-0.9,3.07
		c-0.52,1-1.27,1.91-2.23,2.74c-0.97,0.83-1.99,1.43-3.06,1.79c-1.07,0.36-2.13,0.51-3.18,0.43c-1.05-0.08-2.06-0.37-3.02-0.86
		c-0.97-0.5-1.83-1.19-2.59-2.07c-0.76-0.89-1.31-1.84-1.66-2.87c-0.34-1.03-0.47-2.07-0.39-3.11c0.09-1.05,0.39-2.07,0.91-3.07
		c0.52-1,1.27-1.92,2.24-2.75c0.97-0.83,1.99-1.42,3.06-1.78c1.07-0.36,2.13-0.5,3.17-0.42c1.04,0.08,2.05,0.36,3.01,0.86
		C114.05,73.32,114.9,74.01,115.66,74.89z M112.7,77.42c-0.52-0.6-1.07-1.08-1.64-1.43c-0.58-0.35-1.16-0.56-1.75-0.64
		c-0.59-0.08-1.17-0.03-1.76,0.17c-0.59,0.19-1.16,0.52-1.71,1c-0.56,0.48-0.98,0.99-1.26,1.55c-0.28,0.55-0.43,1.13-0.44,1.72
		c-0.01,0.59,0.11,1.2,0.37,1.82c0.26,0.62,0.65,1.24,1.16,1.84c0.52,0.61,1.07,1.09,1.65,1.44c0.58,0.35,1.16,0.56,1.74,0.64
		c0.59,0.08,1.18,0.02,1.76-0.17c0.59-0.2,1.16-0.53,1.72-1.01c0.55-0.47,0.97-0.98,1.25-1.53c0.28-0.55,0.43-1.12,0.44-1.71
		s-0.11-1.2-0.37-1.82C113.62,78.65,113.23,78.04,112.7,77.42z"/>
	<path class="st0" d="M126.31,69.55c0.28,0.18,0.56,0.37,0.84,0.56c-0.07-0.34-0.13-0.68-0.18-1.02c-0.05-0.33-0.09-0.66-0.12-0.99
		l-0.93-9.13c-0.01-0.16-0.01-0.29,0.01-0.4c0.02-0.11,0.07-0.2,0.13-0.29c0.06-0.08,0.14-0.16,0.25-0.23
		c0.1-0.07,0.23-0.15,0.36-0.24l2.43-1.58l8.81,13.51l-2.81,1.83l-5.07-7.78c-0.25-0.38-0.49-0.8-0.74-1.26l0.89,9.32
		c0.03,0.29-0.02,0.55-0.14,0.79c-0.12,0.24-0.3,0.43-0.55,0.59l-0.43,0.28c-0.25,0.16-0.5,0.25-0.76,0.26
		c-0.26,0.01-0.52-0.05-0.78-0.19l-8.2-4.58c0.17,0.2,0.33,0.4,0.48,0.61c0.15,0.21,0.29,0.4,0.4,0.58l5.07,7.78l-2.81,1.83
		l-8.81-13.51l2.43-1.58c0.14-0.09,0.26-0.17,0.36-0.24c0.1-0.07,0.21-0.11,0.31-0.13c0.1-0.02,0.21-0.02,0.31,0
		c0.11,0.02,0.23,0.07,0.37,0.15l8.02,4.57C125.75,69.21,126.03,69.38,126.31,69.55z"/>
	<path class="st0" d="M141.54,62.01l2.39,4.84l-3.41,1.68l-7.15-14.47l5.19-2.55c1.04-0.51,1.99-0.83,2.85-0.95
		c0.86-0.12,1.64-0.09,2.33,0.09c0.69,0.19,1.29,0.51,1.81,0.98c0.51,0.46,0.94,1.03,1.27,1.7c0.36,0.72,0.57,1.44,0.63,2.16
		c0.06,0.72-0.04,1.41-0.32,2.08c-0.27,0.67-0.72,1.31-1.35,1.91c-0.62,0.61-1.44,1.16-2.46,1.66L141.54,62.01z M140.29,59.47
		l1.78-0.87c0.89-0.44,1.43-0.96,1.61-1.57c0.19-0.61,0.09-1.29-0.28-2.04c-0.16-0.33-0.36-0.61-0.6-0.83
		c-0.24-0.22-0.5-0.38-0.81-0.47c-0.3-0.09-0.64-0.12-1-0.07c-0.37,0.05-0.76,0.18-1.19,0.39l-1.78,0.87L140.29,59.47z"/>
	<path class="st0" d="M158.94,57.08c0.48-0.18,0.88-0.41,1.2-0.71c0.32-0.29,0.55-0.64,0.71-1.02c0.15-0.39,0.22-0.81,0.2-1.28
		c-0.02-0.47-0.13-0.97-0.32-1.5l-3.33-8.96l3.57-1.32l3.33,8.96c0.34,0.93,0.51,1.84,0.49,2.72s-0.21,1.72-0.57,2.49
		c-0.36,0.77-0.89,1.46-1.59,2.08c-0.7,0.61-1.56,1.11-2.58,1.48c-1.03,0.38-2.01,0.56-2.94,0.55c-0.93-0.01-1.79-0.19-2.57-0.54
		c-0.78-0.35-1.46-0.86-2.05-1.52c-0.59-0.66-1.06-1.46-1.4-2.39l-3.33-8.96l3.57-1.32l3.33,8.95c0.2,0.53,0.44,0.98,0.74,1.35
		c0.29,0.37,0.62,0.65,0.99,0.85c0.37,0.2,0.77,0.31,1.21,0.32S158.46,57.26,158.94,57.08z"/>
	<path class="st0" d="M176.51,38.12l0.75,2.87l-4.47,1.16l3.34,12.73l-3.68,0.96l-3.34-12.74l-4.47,1.16l-0.75-2.87L176.51,38.12z"
		/>
	<path class="st0" d="M186.33,52.75l-3.76,0.71l-3.01-15.85l3.76-0.71L186.33,52.75z"/>
	<path class="st0" d="M190.09,35.82c0.11,0,0.22,0.02,0.31,0.05c0.09,0.03,0.19,0.08,0.28,0.14c0.09,0.06,0.19,0.15,0.31,0.27
		l8.8,8.81c-0.06-0.31-0.12-0.6-0.16-0.89c-0.05-0.29-0.08-0.56-0.11-0.82l-0.92-8.48l3.34-0.35l1.74,16.03l-1.97,0.21
		c-0.29,0.03-0.54,0.01-0.75-0.05c-0.21-0.07-0.42-0.21-0.64-0.42l-8.73-8.74c0.05,0.28,0.1,0.55,0.15,0.81
		c0.04,0.27,0.08,0.52,0.1,0.75l0.93,8.59l-3.34,0.35l-1.74-16.03l1.99-0.21C189.84,35.82,189.98,35.82,190.09,35.82z"/>
	<path class="st0" d="M214.23,47.78c0.53,0,0.99-0.04,1.4-0.13c0.41-0.09,0.79-0.2,1.15-0.35v-2.45l-1.62,0
		c-0.24,0-0.43-0.06-0.56-0.19c-0.13-0.13-0.2-0.28-0.2-0.48l0-2.06l5.84,0.01v6.81c-0.42,0.3-0.86,0.56-1.31,0.78
		c-0.46,0.22-0.94,0.39-1.45,0.53c-0.51,0.14-1.06,0.24-1.65,0.3c-0.58,0.06-1.21,0.1-1.88,0.09c-1.2,0-2.31-0.21-3.34-0.63
		c-1.02-0.42-1.91-1-2.65-1.73c-0.75-0.74-1.33-1.61-1.76-2.62c-0.42-1.01-0.64-2.1-0.64-3.28c0-1.2,0.2-2.31,0.61-3.31
		c0.41-1.01,0.99-1.87,1.74-2.6c0.75-0.73,1.67-1.29,2.74-1.7c1.07-0.4,2.27-0.6,3.59-0.6c0.68,0,1.33,0.06,1.93,0.17
		c0.6,0.11,1.16,0.27,1.66,0.46c0.51,0.19,0.97,0.42,1.39,0.69s0.8,0.56,1.13,0.87l-1.1,1.65c-0.11,0.15-0.23,0.28-0.38,0.36
		s-0.31,0.13-0.48,0.13c-0.23,0-0.46-0.08-0.7-0.22c-0.3-0.18-0.58-0.33-0.85-0.46c-0.27-0.13-0.54-0.24-0.82-0.32
		c-0.28-0.08-0.57-0.14-0.88-0.18c-0.31-0.04-0.65-0.06-1.04-0.06c-0.71,0-1.36,0.12-1.93,0.36c-0.57,0.25-1.06,0.59-1.46,1.04
		c-0.4,0.45-0.71,0.99-0.93,1.62c-0.22,0.63-0.33,1.33-0.33,2.11c0,0.85,0.12,1.62,0.36,2.28c0.24,0.66,0.57,1.23,1,1.69
		c0.42,0.46,0.93,0.81,1.51,1.05C212.9,47.66,213.54,47.78,214.23,47.78z"/>
	<path class="st0" d="M231.51,46.19l-0.7,5.34l-3.78-0.5l2.08-15.98l5.74,0.76c1.15,0.15,2.12,0.42,2.9,0.79
		c0.79,0.38,1.42,0.83,1.89,1.37c0.47,0.54,0.79,1.14,0.96,1.81c0.17,0.67,0.21,1.37,0.11,2.11c-0.1,0.8-0.33,1.51-0.68,2.14
		c-0.35,0.63-0.82,1.15-1.42,1.55c-0.6,0.4-1.33,0.69-2.18,0.84c-0.86,0.16-1.85,0.16-2.97,0.01L231.51,46.19z M231.88,43.39
		l1.97,0.26c0.98,0.13,1.72-0.01,2.21-0.41c0.49-0.4,0.79-1.02,0.9-1.84c0.05-0.37,0.04-0.71-0.04-1.02
		c-0.07-0.31-0.21-0.59-0.41-0.84c-0.2-0.25-0.46-0.45-0.79-0.61c-0.33-0.16-0.74-0.28-1.21-0.34l-1.97-0.26L231.88,43.39z"/>
	<path class="st0" d="M246.46,48.13l-1.35,5.81l-3.71-0.87l3.64-15.7l5.2,1.22c1.16,0.27,2.12,0.62,2.88,1.04
		c0.76,0.42,1.35,0.91,1.77,1.44c0.42,0.54,0.68,1.12,0.78,1.74c0.1,0.62,0.08,1.27-0.08,1.93c-0.12,0.51-0.3,0.97-0.54,1.4
		c-0.25,0.42-0.55,0.79-0.91,1.11c-0.36,0.32-0.78,0.58-1.25,0.79c-0.47,0.21-0.99,0.35-1.55,0.42c0.22,0.18,0.42,0.38,0.59,0.62
		c0.17,0.23,0.31,0.49,0.41,0.79l2.13,6.26l-3.36-0.79c-0.62-0.15-1.02-0.48-1.18-1l-1.6-5.18c-0.07-0.23-0.17-0.4-0.31-0.53
		c-0.14-0.12-0.35-0.22-0.63-0.29L246.46,48.13z M247.04,45.62l1.49,0.35c0.5,0.12,0.95,0.16,1.33,0.11
		c0.38-0.04,0.72-0.15,0.99-0.32c0.28-0.17,0.5-0.39,0.68-0.66c0.17-0.27,0.3-0.58,0.38-0.93c0.16-0.69,0.06-1.28-0.31-1.78
		c-0.37-0.5-1.03-0.86-1.99-1.08l-1.49-0.35L247.04,45.62z"/>
	<path class="st0" d="M273.51,54.17c-0.38,1.1-0.93,2.06-1.65,2.87c-0.72,0.81-1.55,1.44-2.49,1.9c-0.95,0.45-1.98,0.71-3.11,0.75
		c-1.13,0.05-2.29-0.14-3.5-0.56c-1.21-0.42-2.24-1.01-3.09-1.75c-0.86-0.74-1.51-1.59-1.98-2.54c-0.46-0.95-0.72-1.96-0.78-3.04
		c-0.06-1.08,0.11-2.17,0.49-3.27c0.38-1.1,0.93-2.06,1.65-2.87c0.72-0.81,1.55-1.44,2.5-1.89c0.95-0.45,1.99-0.7,3.12-0.75
		c1.13-0.05,2.3,0.14,3.51,0.56c1.21,0.42,2.23,1.01,3.08,1.75c0.85,0.75,1.51,1.59,1.97,2.53s0.72,1.95,0.78,3.04
		C274.05,51.99,273.89,53.08,273.51,54.17z M269.83,52.88c0.26-0.75,0.4-1.46,0.41-2.14c0.01-0.67-0.1-1.28-0.32-1.83
		c-0.23-0.55-0.57-1.03-1.03-1.44c-0.46-0.41-1.04-0.74-1.72-0.98c-0.7-0.24-1.35-0.35-1.97-0.32c-0.62,0.03-1.19,0.19-1.71,0.48
		c-0.52,0.29-0.98,0.7-1.39,1.23c-0.41,0.53-0.74,1.17-1,1.93c-0.26,0.76-0.4,1.47-0.41,2.15s0.1,1.28,0.32,1.83
		c0.23,0.55,0.57,1.03,1.04,1.44c0.47,0.41,1.05,0.74,1.74,0.98c0.69,0.24,1.34,0.35,1.96,0.32c0.62-0.03,1.18-0.19,1.7-0.48
		c0.52-0.29,0.98-0.7,1.39-1.23C269.23,54.29,269.56,53.64,269.83,52.88z"/>
	<path class="st0" d="M280.78,63.59c0.47,0.23,0.91,0.39,1.32,0.49c0.4,0.1,0.8,0.16,1.19,0.18l1.06-2.2l-1.46-0.71
		c-0.22-0.1-0.36-0.24-0.42-0.41c-0.07-0.17-0.06-0.34,0.02-0.52l0.89-1.85l5.26,2.55l-2.96,6.12c-0.51,0.09-1.02,0.13-1.52,0.13
		c-0.5,0-1.02-0.05-1.54-0.15c-0.52-0.1-1.06-0.24-1.62-0.44c-0.55-0.2-1.13-0.44-1.73-0.73c-1.08-0.52-1.99-1.2-2.73-2.02
		c-0.74-0.82-1.29-1.73-1.64-2.71c-0.35-0.99-0.5-2.03-0.45-3.12c0.05-1.09,0.34-2.17,0.85-3.23c0.52-1.08,1.18-1.99,1.99-2.72
		s1.7-1.26,2.7-1.58c1-0.33,2.07-0.44,3.21-0.34c1.14,0.1,2.31,0.44,3.5,1.02c0.62,0.3,1.17,0.63,1.66,0.99
		c0.49,0.36,0.93,0.74,1.3,1.13c0.37,0.39,0.69,0.8,0.96,1.22c0.26,0.42,0.48,0.84,0.64,1.27l-1.71,1c-0.16,0.09-0.33,0.15-0.5,0.16
		c-0.17,0.02-0.33-0.01-0.49-0.09c-0.2-0.1-0.38-0.27-0.53-0.5c-0.19-0.29-0.38-0.55-0.57-0.79c-0.18-0.23-0.38-0.45-0.6-0.64
		c-0.22-0.19-0.45-0.38-0.71-0.54c-0.26-0.17-0.57-0.33-0.91-0.5c-0.64-0.31-1.28-0.48-1.9-0.51c-0.62-0.03-1.21,0.07-1.77,0.3
		c-0.56,0.23-1.07,0.58-1.54,1.05c-0.47,0.47-0.87,1.06-1.21,1.75c-0.37,0.77-0.59,1.51-0.67,2.21c-0.07,0.7-0.02,1.35,0.17,1.95
		s0.49,1.13,0.91,1.6C279.64,62.9,280.16,63.29,280.78,63.59z"/>
	<path class="st0" d="M293.5,66.79l-3.14,5.07l-3.24-2.01l8.47-13.69l4.54,2.82c1.01,0.63,1.81,1.26,2.39,1.91
		c0.59,0.65,0.99,1.29,1.22,1.93c0.23,0.64,0.29,1.28,0.19,1.9c-0.1,0.62-0.33,1.22-0.69,1.81c-0.28,0.44-0.6,0.83-0.96,1.15
		c-0.37,0.32-0.77,0.57-1.22,0.76c-0.45,0.19-0.93,0.3-1.44,0.35c-0.51,0.05-1.05,0.01-1.6-0.1c0.15,0.24,0.27,0.5,0.36,0.77
		c0.09,0.27,0.14,0.57,0.14,0.88l0.02,6.61l-2.93-1.82c-0.54-0.34-0.81-0.78-0.8-1.33l0.14-5.41c0.01-0.24-0.04-0.44-0.13-0.6
		c-0.09-0.16-0.26-0.32-0.51-0.47L293.5,66.79z M294.86,64.6l1.3,0.81c0.44,0.27,0.85,0.45,1.23,0.53c0.38,0.08,0.73,0.09,1.04,0.02
		c0.32-0.07,0.6-0.21,0.85-0.41c0.25-0.2,0.47-0.46,0.66-0.76c0.37-0.6,0.46-1.2,0.27-1.78c-0.19-0.59-0.7-1.14-1.54-1.66l-1.3-0.81
		L294.86,64.6z"/>
	<path class="st0" d="M312,87.3l-2.33-1.81c-0.26-0.2-0.43-0.43-0.51-0.68c-0.08-0.25-0.08-0.49,0-0.73l0.96-2.81l-4.93-3.84
		l-2.49,1.62c-0.19,0.12-0.42,0.17-0.69,0.17c-0.27,0-0.54-0.1-0.79-0.29l-2.35-1.83l14.9-8.81l3.08,2.4L312,87.3z M307.44,75.96
		l3.54,2.76l1.51-4.41c0.09-0.28,0.21-0.61,0.33-0.99s0.28-0.78,0.45-1.21c-0.37,0.28-0.72,0.53-1.06,0.76
		c-0.34,0.22-0.63,0.41-0.9,0.56L307.44,75.96z"/>
	<path class="st0" d="M324,89.95c-0.12,0.31-0.24,0.63-0.38,0.94c0.32-0.14,0.64-0.27,0.96-0.38c0.32-0.11,0.63-0.22,0.94-0.32
		l8.75-2.75c0.15-0.05,0.28-0.07,0.4-0.07c0.11,0,0.21,0.02,0.31,0.07c0.09,0.04,0.19,0.11,0.27,0.2c0.09,0.09,0.19,0.19,0.31,0.31
		l2.05,2.06l-11.42,11.34l-2.37-2.38l6.57-6.53c0.32-0.32,0.68-0.64,1.08-0.98l-8.94,2.75c-0.28,0.09-0.55,0.09-0.8,0.02
		c-0.25-0.07-0.49-0.21-0.69-0.42l-0.37-0.37c-0.21-0.21-0.34-0.44-0.41-0.7c-0.07-0.26-0.06-0.52,0.03-0.8l2.8-8.95
		c-0.16,0.2-0.33,0.4-0.5,0.59c-0.17,0.19-0.33,0.36-0.48,0.51l-6.57,6.53l-2.37-2.38l11.42-11.34l2.05,2.06
		c0.12,0.12,0.22,0.22,0.31,0.31c0.09,0.09,0.15,0.18,0.2,0.27c0.04,0.09,0.07,0.2,0.07,0.31c0,0.11-0.02,0.24-0.07,0.39l-2.82,8.76
		C324.22,89.33,324.12,89.64,324,89.95z"/>
	<path class="st0" d="M346.78,115.55c-0.95,0.67-1.95,1.13-3.01,1.38c-1.05,0.25-2.1,0.28-3.14,0.1c-1.04-0.18-2.03-0.57-2.98-1.18
		c-0.95-0.61-1.8-1.44-2.54-2.48c-0.74-1.04-1.25-2.11-1.52-3.21c-0.27-1.1-0.32-2.17-0.15-3.21c0.17-1.04,0.54-2.01,1.12-2.93
		c0.58-0.91,1.34-1.71,2.29-2.38c0.95-0.67,1.95-1.14,3-1.38c1.06-0.25,2.1-0.28,3.13-0.1s2.03,0.58,2.98,1.2
		c0.95,0.61,1.8,1.44,2.54,2.48c0.74,1.04,1.25,2.11,1.51,3.21c0.26,1.1,0.31,2.17,0.14,3.2c-0.17,1.03-0.54,2.01-1.12,2.92
		C348.48,114.08,347.72,114.88,346.78,115.55z M344.51,112.37c0.65-0.46,1.17-0.96,1.57-1.5c0.4-0.54,0.66-1.1,0.79-1.68
		c0.13-0.58,0.13-1.17-0.01-1.77c-0.14-0.6-0.42-1.2-0.84-1.79c-0.43-0.6-0.9-1.07-1.43-1.4c-0.53-0.33-1.08-0.53-1.67-0.6
		c-0.59-0.07-1.2,0-1.85,0.2c-0.64,0.2-1.29,0.53-1.94,0.99c-0.65,0.47-1.18,0.97-1.58,1.51s-0.66,1.1-0.79,1.68
		s-0.12,1.17,0.02,1.77c0.15,0.6,0.43,1.2,0.86,1.8c0.42,0.59,0.9,1.06,1.42,1.39c0.52,0.33,1.08,0.53,1.67,0.59
		c0.59,0.06,1.21,0,1.85-0.2C343.21,113.17,343.86,112.84,344.51,112.37z"/>
	<path class="st0" d="M360.33,123.27l-2.51,1.41l-3.32-5.87l-3.56,2l2.76,4.89l-2.52,1.41l-2.76-4.89l-5.46,3.07l-1.88-3.34
		l14.04-7.9L360.33,123.27z"/>
	<path class="st0" d="M366.27,136.03l-2.62,1.19l-2.79-6.14l-3.72,1.68l2.32,5.11l-2.63,1.19l-2.32-5.11l-5.71,2.58l-1.59-3.49
		l14.68-6.64L366.27,136.03z"/>
	<path class="st0" d="M353.73,148.52l-1.34-3.59l15.11-5.61l1.34,3.59L353.73,148.52z"/>
	<path class="st0" d="M361.93,160.91c0.03,0.09,0.03,0.18,0.03,0.27c-0.01,0.1-0.04,0.19-0.09,0.3l-1.08,1.88
		c-1-0.4-1.84-1.02-2.53-1.86c-0.69-0.84-1.22-1.91-1.6-3.22c-0.35-1.2-0.46-2.33-0.33-3.39c0.13-1.06,0.45-2.03,0.96-2.89
		c0.51-0.86,1.21-1.61,2.07-2.24c0.87-0.63,1.87-1.11,3-1.43c1.16-0.33,2.28-0.43,3.36-0.3c1.08,0.13,2.08,0.45,2.99,0.98
		c0.91,0.52,1.71,1.24,2.39,2.14c0.68,0.9,1.2,1.96,1.55,3.18c0.17,0.59,0.28,1.16,0.33,1.72c0.05,0.55,0.05,1.08,0,1.59
		c-0.05,0.51-0.15,0.99-0.29,1.44c-0.14,0.45-0.32,0.87-0.54,1.26l-1.98-0.77c-0.12-0.05-0.24-0.12-0.35-0.21
		c-0.11-0.08-0.2-0.23-0.25-0.42c-0.04-0.13-0.04-0.26-0.02-0.39s0.06-0.27,0.1-0.43c0.04-0.15,0.09-0.32,0.14-0.5
		c0.05-0.18,0.09-0.39,0.11-0.63c0.02-0.24,0.02-0.51-0.01-0.81c-0.03-0.3-0.09-0.64-0.2-1.03c-0.19-0.66-0.48-1.24-0.87-1.72
		c-0.39-0.48-0.85-0.86-1.4-1.13c-0.54-0.27-1.15-0.43-1.82-0.48c-0.67-0.05-1.39,0.04-2.15,0.26c-0.79,0.23-1.47,0.54-2.02,0.93
		c-0.55,0.4-0.99,0.84-1.3,1.34c-0.31,0.5-0.51,1.03-0.58,1.6c-0.07,0.57-0.03,1.14,0.14,1.72c0.1,0.33,0.2,0.63,0.31,0.9
		c0.11,0.27,0.24,0.5,0.38,0.72c0.15,0.21,0.31,0.41,0.5,0.59c0.19,0.18,0.4,0.35,0.65,0.51c0.1,0.07,0.18,0.14,0.26,0.23
		C361.84,160.7,361.9,160.8,361.93,160.91z"/>
	<path class="st0" d="M376.62,173.32l-2.83,0.52l-1.24-6.62l-3.7,0.68l0.95,5.07l-2.72,0.5l-0.95-5.07l-3.78,0.7l1.24,6.62
		l-2.83,0.52l-1.94-10.39l15.85-2.92L376.62,173.32z"/>
</g>
</svg>
